HIERARCHY
ROOT Hips
{
	OFFSET 0.00000 0.00000 0.00000
	CHANNELS 6 Xposition Yposition Zposition Zrotation Yrotation Xrotation 
	JOINT LHipJoint
	{
		OFFSET 0 0 0
		CHANNELS 3 Zrotation Yrotation Xrotation
		JOINT LeftHip
		{
			OFFSET 1.44361 -1.63093 0.70831
			CHANNELS 3 Zrotation Yrotation Xrotation
			JOINT LeftKnee
			{
				OFFSET 2.20103 -6.04728 0.00000
				CHANNELS 3 Zrotation Yrotation Xrotation
				JOINT LeftAnkle
				{
					OFFSET 2.54154 -6.98283 0.00000
					CHANNELS 3 Zrotation Yrotation Xrotation
					JOINT LeftToe
					{
						OFFSET 0.05971 -0.16406 1.77582
						CHANNELS 3 Zrotation Yrotation Xrotation
						End Site
						{
							OFFSET 0.00000 -0.00000 0.90832
						}
					}
				}
			}
		}
	}
	JOINT RHipJoint
	{
		OFFSET 0 0 0
		CHANNELS 3 Zrotation Yrotation Xrotation
		JOINT RightHip
		{
			OFFSET -1.65838 -1.63093 0.70830
			CHANNELS 3 Zrotation Yrotation Xrotation
			JOINT RightKnee
			{
				OFFSET -2.26926 -6.23475 0.00000
				CHANNELS 3 Zrotation Yrotation Xrotation
				JOINT RightAnkle
				{
					OFFSET -2.34808 -6.45129 0.00000
					CHANNELS 3 Zrotation Yrotation Xrotation
					JOINT RightToe
					{
						OFFSET -0.18633 -0.51195 1.68539
						CHANNELS 3 Zrotation Yrotation Xrotation
						End Site
						{
							OFFSET -0.00000 -0.00000 0.88927
						}
					}
				}
			}
		}
	}
	JOINT lowerback
	{
		OFFSET 0 0 0
		CHANNELS 3 Zrotation Yrotation Xrotation
		JOINT Chest
		{
			OFFSET -0.10393 2.01691 0.06920
			CHANNELS 3 Zrotation Yrotation Xrotation
			JOINT Chest2
			{
				OFFSET 0.04092 2.01302 -0.05283
				CHANNELS 3 Zrotation Yrotation Xrotation
				JOINT lowerneck
				{
					OFFSET 0 0 0
					CHANNELS 3 Zrotation Yrotation Xrotation
					JOINT Neck
					{
						OFFSET -0.02870 1.58978 -0.03113
						CHANNELS 3 Zrotation Yrotation Xrotation
						JOINT Head
						{
							OFFSET 0.11532 1.54326 -0.29195
							CHANNELS 3 Zrotation Yrotation Xrotation
							End Site
							{
								OFFSET 0.04056 1.59999 -0.09535
							}
						}
					}
				}
				JOINT LeftCollar
				{
					OFFSET 0 0 0
					CHANNELS 3 Zrotation Yrotation Xrotation
					JOINT LeftShoulder
					{
						OFFSET 3.30641 1.15764 0.01104
CHANNELS 3 Zrotation Xrotation Yrotation
						JOINT LeftElbow
						{
OFFSET 0 -4.632080 0.000000
CHANNELS 3 Zrotation Xrotation Yrotation
							JOINT LeftWrist
							{
OFFSET 0 -3.419240 -0.000000
CHANNELS 3 Zrotation Xrotation Yrotation
								JOINT lhand
								{
									OFFSET 0 0 0
CHANNELS 3 Zrotation Xrotation Yrotation
									JOINT LFingers
									{
OFFSET 0 -0.625370 -0.000000
CHANNELS 3 Zrotation Xrotation Yrotation
										End Site
										{
OFFSET 0 -0.504190 -0.000000
										}
									}
								}
								JOINT LThumb
								{
OFFSET 0 0.000000 0.000000
CHANNELS 3 Zrotation Xrotation Yrotation
									End Site
									{
OFFSET 0 -0.511890 0.511890
									}
								}
							}
						}
					}
				}
				JOINT RightCollar
				{
					OFFSET 0 0 0
					CHANNELS 3 Zrotation Yrotation Xrotation
					JOINT RightShoulder
					{
						OFFSET -3.78081 1.02180 -0.16609
CHANNELS 3 Zrotation Xrotation Yrotation
						JOINT RightElbow
						{
OFFSET 0 -4.406400 -0.000000
CHANNELS 3 Zrotation Xrotation Yrotation
							JOINT RightWrist
							{
OFFSET 0 -3.446750 0.000000
CHANNELS 3 Zrotation Xrotation Yrotation
								JOINT rhand
								{
									OFFSET 0 0 0
CHANNELS 3 Zrotation Xrotation Yrotation
									JOINT RFingers
									{
OFFSET 0 -0.513670 -0.000000
CHANNELS 3 Zrotation Xrotation Yrotation
										End Site
										{
OFFSET 0 -0.414140 -0.000000
										}
									}
								}
								JOINT RThumb
								{
OFFSET 0 0.000000 0.000000
CHANNELS 3 Zrotation Xrotation Yrotation
									End Site
									{
OFFSET 0 -0.420460 0.420460
									}
								}
							}
						}
					}
				}
			}
		}
	}
}
MOTION
Frames: 8
Frame Time: 0.008333333333333333
6.991000 16.566000 35.553100 179.823000 1.089900 -172.288000 0.000000 0.000000 0.000000 -20.088200 -12.373300 -4.115300 0.818100 5.771500 16.122800 0.851600 -4.247200 -16.525300 9.043500 -16.835600 -56.240500 0.000000 0.000000 0.000000 20.507900 2.045100 -3.157300 -0.201400 -2.889600 7.971600 -0.570500 0.936600 -13.976600 -2.640700 10.089400 -29.266700 -6.116400 1.276900 -8.082500 1.283400 2.246800 0.418100 5.055000 0.953000 4.693000 -3.250200 -0.101800 -8.442600 3.774000 -0.944800 17.695500 1.647500 -0.604100 6.808300 0.000000 0.000000 0.000000 0.712900 1.878500 -6.678100 5.988100 -10.242200 0.537100 27.608600 31.169800 19.267100 0.000000 0.000000 0.000000 -7.125000 0.000000 0.000000 -0.429700 8.452700 -0.361900 0.000000 0.000000 0.000000 3.543100 5.236300 -13.524500 -11.780800 -19.475100 -2.028600 -23.998200 46.756800 41.585100 0.000000 0.000000 0.000000 7.125000 0.000000 -0.000000 21.331200 73.202100 -14.430100
6.993865 16.566694 35.564125 179.789144 1.135736 -172.370471 0.000000 0.000000 0.000000 -20.026217 -12.002355 -4.160268 0.807596 5.735039 16.017585 0.912889 -4.051180 -17.148258 9.554906 -17.150204 -57.987839 0.000000 0.000000 0.000000 20.504775 2.169674 -3.077868 -0.200966 -2.886562 7.963179 -0.562947 0.723912 -13.943351 -2.732720 10.249046 -29.787134 -6.224307 1.305461 -8.017565 1.265343 2.291595 0.440411 5.099881 0.972533 4.670863 -3.041419 -0.141820 -8.693051 3.663055 -1.125715 18.713103 1.563033 -0.718170 7.186711 0.000000 0.000000 0.000000 0.687812 1.909578 -7.389866 6.066230 -10.372591 0.551163 27.418744 30.608738 18.955621 0.000000 0.000000 0.000000 -7.125000 0.000000 0.000000 -0.516251 8.827551 -0.430828 0.000000 0.000000 0.000000 3.692416 5.436400 -11.989068 -11.969354 -19.758539 -2.091972 -23.704083 43.428800 40.212786 0.000000 0.000000 0.000000 7.125000 0.000000 0.000000 19.389143 71.873799 -12.541866
6.995552 16.567168 35.574340 179.800933 1.194678 -172.402878 0.000000 0.000000 0.000000 -19.958859 -11.848671 -4.185506 0.800626 5.710800 15.947635 0.983822 -3.662563 -17.874656 10.035095 -17.427261 -59.602510 0.000000 0.000000 0.000000 20.535884 2.328262 -3.057333 -0.201710 -2.891843 7.977876 -0.562094 0.609805 -13.966866 -2.663285 10.128484 -29.394131 -6.259474 1.301554 -8.029787 1.259950 2.290964 0.482673 5.115608 0.967917 4.721245 -2.898751 -0.167410 -8.931427 3.608579 -1.276003 19.582356 1.508750 -0.812951 7.517340 0.000000 0.000000 0.000000 0.612807 1.857242 -7.722255 6.119402 -10.461237 0.560736 27.376206 30.298583 18.745447 0.000000 0.000000 0.000000 -7.125000 0.000000 0.000000 -0.519976 9.065244 -0.431582 0.000000 0.000000 0.000000 3.812576 5.481525 -10.567456 -12.095845 -19.948109 -2.134877 -23.336417 40.347657 38.992209 0.000000 0.000000 0.000000 7.125000 0.000000 0.000000 18.038203 70.637159 -11.162881
6.995879 16.567421 35.584833 179.802165 1.254999 -172.441426 0.000000 0.000000 0.000000 -19.974783 -11.917867 -4.125804 0.797370 5.699567 15.915246 1.058296 -3.010641 -18.672827 10.525225 -17.691911 -61.225988 0.000000 0.000000 0.000000 20.537410 2.427554 -3.065359 -0.204055 -2.908404 8.023849 -0.561777 0.545871 -13.982720 -2.620407 10.053695 -29.150666 -6.275205 1.282102 -8.033651 1.247336 2.267571 0.536547 5.110158 0.951723 4.783227 -2.869213 -0.158566 -9.179305 3.681521 -1.396086 20.472897 1.517107 -0.891948 7.860200 0.000000 0.000000 0.000000 0.521669 1.756423 -7.832817 6.200617 -10.596373 0.575608 27.170901 30.462154 18.503864 0.000000 0.000000 0.000000 -7.125000 0.000000 0.000000 -0.626288 9.365088 -0.515729 0.000000 0.000000 0.000000 3.912164 5.452473 -9.165811 -12.180577 -20.074873 -2.163903 -22.906262 37.244439 37.788721 0.000000 0.000000 0.000000 7.125000 0.000000 0.000000 16.987148 69.381766 -10.027475
6.995422 16.567642 35.596692 179.824985 1.313198 -172.476174 0.000000 0.000000 0.000000 -19.998564 -12.135107 -4.052635 0.805477 5.727687 15.996466 1.152791 -2.282383 -19.663233 10.969501 -17.918269 -62.680136 0.000000 0.000000 0.000000 20.558639 2.500100 -3.113987 -0.209085 -2.943838 8.122391 -0.562587 0.500239 -14.007141 -2.630184 10.070874 -29.206507 -6.261682 1.269079 -8.031472 1.236582 2.249512 0.589583 5.090421 0.939120 4.841154 -2.919980 -0.136200 -9.376098 3.877663 -1.518516 21.328391 1.579215 -0.968304 8.186668 0.000000 0.000000 0.000000 0.442274 1.649893 -7.996651 6.340528 -10.828767 0.601742 26.696462 30.872401 18.391459 0.000000 0.000000 0.000000 -7.125000 0.000000 0.000000 -0.921807 9.568088 -0.755656 0.000000 0.000000 0.000000 4.024470 5.428016 -7.446492 -12.243762 -20.169234 -2.185636 -22.127030 32.770091 35.879186 0.000000 0.000000 0.000000 7.125000 0.000000 0.000000 15.811514 67.338512 -8.609849
6.994659 16.567357 35.609404 179.866942 1.359654 -172.488254 0.000000 0.000000 0.000000 -19.985971 -12.370871 -4.043240 0.826568 5.800169 16.205920 1.266317 -1.876627 -20.732434 11.233883 -18.047613 -63.538718 0.000000 0.000000 0.000000 20.607959 2.603031 -3.194802 -0.216027 -2.992076 8.256639 -0.568432 0.466767 -14.090819 -2.641064 10.090010 -29.268709 -6.230260 1.268609 -8.053694 1.221691 2.248417 0.636560 5.058898 0.935513 4.905013 -2.953227 -0.133187 -9.518492 4.107233 -1.683175 22.113778 1.645223 -1.059897 8.485134 0.000000 0.000000 0.000000 0.395163 1.565758 -8.471606 6.519413 -11.125473 0.635793 26.275499 30.926578 18.520495 0.000000 0.000000 0.000000 -7.125000 0.000000 0.000000 -1.208586 9.498048 -0.993012 0.000000 0.000000 0.000000 4.146533 5.364702 -6.299699 -12.358067 -20.339294 -2.225327 -21.162818 29.631736 34.411832 0.000000 0.000000 0.000000 7.125000 0.000000 0.000000 15.424415 65.659596 -7.778476
6.993833 16.566229 35.621550 179.883653 1.387975 -172.486426 0.000000 0.000000 0.000000 -19.971052 -12.514704 -4.098519 0.851422 5.884840 16.450768 1.360299 -2.115059 -21.463183 11.185522 -18.023636 -63.381205 0.000000 0.000000 0.000000 20.637523 2.745229 -3.267497 -0.222689 -3.037413 8.382808 -0.579341 0.442585 -14.234982 -2.621598 10.055747 -29.157461 -6.221667 1.275004 -8.097369 1.187601 2.261092 0.674534 5.022207 0.938703 4.969701 -2.917730 -0.161167 -9.646109 4.302400 -1.905893 22.881289 1.682118 -1.176941 8.780440 0.000000 0.000000 0.000000 0.377024 1.493482 -9.241298 6.676874 -11.386246 0.666381 26.236160 30.324324 18.745653 0.000000 0.000000 0.000000 -7.125000 0.000000 0.000000 -1.257516 9.259764 -1.039056 0.000000 0.000000 0.000000 4.274296 5.278036 -6.169503 -12.574828 -20.660852 -2.301291 -20.728071 29.819946 34.450678 0.000000 0.000000 0.000000 7.125000 0.000000 0.000000 15.980030 65.573073 -8.033989
6.993162 16.565277 35.632568 179.851693 1.411501 -172.512913 0.000000 0.000000 0.000000 -20.005468 -12.549035 -4.130842 0.864400 5.928600 16.577300 1.376823 -2.845163 -21.434438 10.840318 -17.856036 -62.261788 0.000000 0.000000 0.000000 20.613870 2.863017 -3.288847 -0.227561 -3.070250 8.474235 -0.586923 0.407624 -14.340287 -2.620119 10.053178 -29.148962 -6.266068 1.283578 -8.098209 1.143851 2.279240 0.694699 5.003715 0.945617 4.989220 -2.910091 -0.188404 -9.755603 4.518916 -2.150884 23.707460 1.728197 -1.308746 9.097631 0.000000 0.000000 0.000000 0.340802 1.376224 -9.851895 6.747061 -11.502219 0.680294 26.364798 29.688136 18.726318 0.000000 0.000000 0.000000 -7.125000 0.000000 0.000000 -1.172160 9.259330 -0.968468 0.000000 0.000000 0.000000 4.440439 5.420731 -5.148074 -12.839464 -21.051279 -2.395405 -21.416762 28.454416 34.216346 0.000000 0.000000 0.000000 7.125000 0.000000 0.000000 14.938615 65.544057 -7.488929
